<?xml version="1.0" encoding="UTF-8"?>
<svg xmlns="http://www.w3.org/2000/svg" viewBox="0 0 200 200" width="100%" height="100%">
  <defs>
    <linearGradient id="darkChassis" x1="0%" y1="0%" x2="100%" y2="100%">
      <stop offset="0%" stop-color="#1E293B"/>
      <stop offset="50%" stop-color="#0F172A"/>
      <stop offset="100%" stop-color="#020617"/>
    </linearGradient>
    <linearGradient id="blueChassis" x1="0%" y1="0%" x2="100%" y2="100%">
      <stop offset="0%" stop-color="#2563EB"/>
      <stop offset="50%" stop-color="#1D4ED8"/>
      <stop offset="100%" stop-color="#172554"/>
    </linearGradient>
    <linearGradient id="metalBezel" x1="0%" y1="0%" x2="100%" y2="100%">
      <stop offset="0%" stop-color="#94A3B8"/>
      <stop offset="50%" stop-color="#475569"/>
      <stop offset="100%" stop-color="#334155"/>
    </linearGradient>
    <linearGradient id="lensGlass" x1="0%" y1="0%" x2="100%" y2="100%">
      <stop offset="0%" stop-color="#38BDF8" stop-opacity="0.8"/>
      <stop offset="50%" stop-color="#0284C7" stop-opacity="0.9"/>
      <stop offset="100%" stop-color="#0F172A"/>
    </linearGradient>
    <filter id="glowGreen" x="-20%" y="-20%" width="140%" height="140%">
      <feGaussianBlur stdDeviation="2" result="blur"/>
      <feComposite in="SourceGraphic" in2="blur" operator="over"/>
    </filter>
    <filter id="glowBlue" x="-20%" y="-20%" width="140%" height="140%">
      <feGaussianBlur stdDeviation="2" result="blur"/>
      <feComposite in="SourceGraphic" in2="blur" operator="over"/>
    </filter>
    <filter id="dropShadow" x="-10%" y="-10%" width="120%" height="120%">
      <feDropShadow dx="0" dy="6" stdDeviation="5" flood-color="#000" flood-opacity="0.25"/>
    </filter>
  </defs>
  
  <!-- Drop Shadow -->
  <rect x="92" y="60" width="16" height="125" fill="none" filter="url(#dropShadow)"/>

  <!-- Stainless Steel Probe Rod -->
  <rect x="93" y="60" width="14" height="124" rx="3" fill="url(#metalBezel)" stroke="#64748B" stroke-width="1"/>
  
  <!-- Graduation marks on probe rod -->
  <line x1="93" y1="85" x2="101" y2="85" stroke="#94A3B8" stroke-width="1.5"/>
  <line x1="93" y1="105" x2="101" y2="105" stroke="#94A3B8" stroke-width="1.5"/>
  <line x1="93" y1="125" x2="101" y2="125" stroke="#94A3B8" stroke-width="1.5"/>
  <line x1="93" y1="145" x2="101" y2="145" stroke="#94A3B8" stroke-width="1.5"/>
  <line x1="93" y1="165" x2="101" y2="165" stroke="#94A3B8" stroke-width="1.5"/>

  <!-- Probe Bottom Filter Cap -->
  <rect x="90" y="180" width="20" height="8" rx="2" fill="#334155" stroke="#64748B" stroke-width="1"/>

  <!-- Circular Aluminum Mounting Flange Head -->
  <ellipse cx="100" cy="52" rx="58" ry="22" fill="url(#metalBezel)" stroke="#94A3B8" stroke-width="2"/>
  <ellipse cx="100" cy="50" rx="54" ry="19" fill="#0F172A"/>

  <!-- Flange Screws -->
  <circle cx="56" cy="50" r="3" fill="#94A3B8" stroke="#334155" stroke-width="1"/>
  <circle cx="144" cy="50" r="3" fill="#94A3B8" stroke="#334155" stroke-width="1"/>
  <circle cx="80" cy="62" r="3" fill="#94A3B8" stroke="#334155" stroke-width="1"/>
  <circle cx="120" cy="62" r="3" fill="#94A3B8" stroke="#334155" stroke-width="1"/>
  <circle cx="100" cy="36" r="3" fill="#94A3B8" stroke="#334155" stroke-width="1"/>

  <!-- Transmitter Dome / Sensor Center -->
  <circle cx="100" cy="48" r="16" fill="#1E3A8A" stroke="#38BDF8" stroke-width="1.5"/>
  <!-- BLE Wireless Signal Icon -->
  <path d="M 96,44 Q 100,41 104,44 M 93,40 Q 100,36 107,40" fill="none" stroke="#38BDF8" stroke-width="1.5" stroke-linecap="round"/>
  <circle cx="100" cy="48" r="2.5" fill="#F59E0B"/>
  
  <!-- Waterproof cable outlet -->
  <rect x="136" y="38" width="24" height="10" rx="3" fill="#1E293B" stroke="#475569" stroke-width="1"/>
  <path d="M 160,43 Q 175,43 180,60" fill="none" stroke="#F59E0B" stroke-width="3" stroke-linecap="round"/>

  <text x="100" y="22" fill="#0F172A" font-size="12" font-family="sans-serif" font-weight="800" text-anchor="middle">SP BLE-4</text>
  <text x="100" y="32" fill="#006EFF" font-size="7" font-family="sans-serif" font-weight="bold" text-anchor="middle">DIGITAL CAPACITIVE SENSOR</text>
  
</svg>