<svg xmlns="http://www.w3.org/2000/svg" viewBox="0 0 200 160" width="100%" height="100%">
    <defs>
      <linearGradient id="ceramicGrad" x1="0%" y1="0%" x2="100%" y2="0%">
        <stop offset="0%" stop-color="#FFFFFF"/>
        <stop offset="60%" stop-color="#F1F5F9"/>
        <stop offset="100%" stop-color="#CBD5E1"/>
      </linearGradient>
      <linearGradient id="metalHex" x1="0%" y1="0%" x2="100%" y2="0%">
        <stop offset="0%" stop-color="#94A3B8"/>
        <stop offset="50%" stop-color="#E2E8F0"/>
        <stop offset="100%" stop-color="#475569"/>
      </linearGradient>
      <filter id="sparkShadow" x="-10%" y="-10%" width="120%" height="120%">
        <feDropShadow dx="0" dy="4" stdDeviation="4" flood-color="#000" flood-opacity="0.2"/>
      </filter>
    </defs>
    <g transform="rotate(45 100 80)" filter="url(#sparkShadow)">
      <rect x="96" y="20" width="8" height="12" rx="2" fill="url(#metalHex)" stroke="#334155" stroke-width="0.8"/>
      <rect x="95" y="32" width="10" height="36" rx="3" fill="url(#ceramicGrad)" stroke="#94A3B8" stroke-width="0.8"/>
      <line x1="93" y1="40" x2="107" y2="40" stroke="#CBD5E1" stroke-width="2.5" stroke-linecap="round"/>
      <line x1="93" y1="48" x2="107" y2="48" stroke="#CBD5E1" stroke-width="2.5" stroke-linecap="round"/>
      <line x1="93" y1="56" x2="107" y2="56" stroke="#CBD5E1" stroke-width="2.5" stroke-linecap="round"/>
      <rect x="90" y="68" width="20" height="16" rx="2" fill="url(#metalHex)" stroke="#334155" stroke-width="1"/>
      <rect x="93" y="84" width="14" height="28" fill="url(#metalHex)" stroke="#475569" stroke-width="1"/>
      <line x1="93" y1="89" x2="107" y2="89" stroke="#334155" stroke-width="1.5"/>
      <line x1="93" y1="94" x2="107" y2="94" stroke="#334155" stroke-width="1.5"/>
      <line x1="93" y1="99" x2="107" y2="99" stroke="#334155" stroke-width="1.5"/>
      <line x1="93" y1="104" x2="107" y2="104" stroke="#334155" stroke-width="1.5"/>
      <rect x="98.5" y="112" width="3" height="8" fill="#F59E0B"/>
      <path d="M 94,112 L 94,123 L 101,123" fill="none" stroke="#475569" stroke-width="2.5" stroke-linecap="square"/>
    </g>
  </svg>